# xmcd
#
# Track frame offsets: 
#        150
#        12712
#        31904
#        52309
#        72261
#        85011
#        98673
#        116161
#        129783
#        143519
#        154487
#        165227
#        175744
#        194695
#        233732
#        257041
#        275910
#
# Disc length: 4327 seconds
#
# Revision: 0
# Processed by: cddbd v1.5.2PL0 Copyright (c) Steve Scherf et al.
# Submitted via: ExactAudioCopy v0.95b4
#
DISCID=ed10e511
DTITLE=Aretha Franklin - Dorun Choice Best
DYEAR=1900
DGENRE=Soul
TTITLE0=Natural Woman(You Make Me Feel Like)
TTITLE1=Ain't No Way
TTITLE2=Angel
TTITLE3=You Are My Sunshine
TTITLE4=Chain of Fools
TTITLE5=Don't play The Song
TTITLE6=Mr. Bojangles
TTITLE7=Respect
TTITLE8=Since You've Been Gone
TTITLE9=The House The Jade Built
TTITLE10=Think
TTITLE11=You Are My Shunshine
TTITLE12=Precious Lord
TTITLE13=Take Me Hand
TTITLE14=Natural Woman(Live)
TTITLE15=Precious Memories
TTITLE16=Amazing Grace
EXTD=
EXTT0=
EXTT1=
EXTT2=
EXTT3=
EXTT4=
EXTT5=
EXTT6=
EXTT7=
EXTT8=
EXTT9=
EXTT10=
EXTT11=
EXTT12=
EXTT13=
EXTT14=
EXTT15=
EXTT16=
PLAYORDER=
